<mxfile host="app.diagrams.net" agent="Mozilla/5.0 (Windows NT 10.0; Win64; x64) AppleWebKit/537.36 (KHTML, like Gecko) Chrome/128.0.0.0 Safari/537.36 OPR/114.0.0.0" version="24.8.4">
  <diagram name="Page-1" id="iWy4ZyQwQhouPtOppjKk">
    <mxGraphModel dx="4893" dy="1540" grid="1" gridSize="10" guides="1" tooltips="1" connect="1" arrows="1" fold="1" page="1" pageScale="1" pageWidth="1100" pageHeight="850" math="0" shadow="0">
      <root>
        <mxCell id="0" />
        <mxCell id="1" parent="0" />
        <mxCell id="pSlSebkYDRzY324gOrCj-168" style="edgeStyle=none;shape=connector;rounded=0;orthogonalLoop=1;jettySize=auto;html=1;exitX=1;exitY=0;exitDx=0;exitDy=0;strokeColor=default;align=center;verticalAlign=middle;fontFamily=Helvetica;fontSize=11;fontColor=default;labelBackgroundColor=default;endArrow=none;endFill=0;" edge="1" parent="1" source="pSlSebkYDRzY324gOrCj-145" target="45yQKrNz5KwJR_Yoa7GH-7">
          <mxGeometry relative="1" as="geometry" />
        </mxCell>
        <mxCell id="pSlSebkYDRzY324gOrCj-150" style="edgeStyle=none;shape=connector;rounded=0;orthogonalLoop=1;jettySize=auto;html=1;strokeColor=default;align=center;verticalAlign=middle;fontFamily=Helvetica;fontSize=11;fontColor=default;labelBackgroundColor=default;endArrow=none;endFill=0;" edge="1" parent="1" source="pSlSebkYDRzY324gOrCj-149" target="45yQKrNz5KwJR_Yoa7GH-7">
          <mxGeometry relative="1" as="geometry" />
        </mxCell>
        <mxCell id="pSlSebkYDRzY324gOrCj-147" style="edgeStyle=none;shape=connector;rounded=0;orthogonalLoop=1;jettySize=auto;html=1;strokeColor=default;align=center;verticalAlign=middle;fontFamily=Helvetica;fontSize=11;fontColor=default;labelBackgroundColor=default;endArrow=none;endFill=0;" edge="1" parent="1" source="pSlSebkYDRzY324gOrCj-145" target="45yQKrNz5KwJR_Yoa7GH-5">
          <mxGeometry relative="1" as="geometry" />
        </mxCell>
        <mxCell id="pSlSebkYDRzY324gOrCj-143" style="edgeStyle=none;shape=connector;rounded=0;orthogonalLoop=1;jettySize=auto;html=1;strokeColor=default;align=center;verticalAlign=middle;fontFamily=Helvetica;fontSize=11;fontColor=default;labelBackgroundColor=default;endArrow=none;endFill=0;" edge="1" parent="1" source="pSlSebkYDRzY324gOrCj-141" target="45yQKrNz5KwJR_Yoa7GH-5">
          <mxGeometry relative="1" as="geometry">
            <mxPoint x="-812.9968617021276" y="739.9242021276596" as="sourcePoint" />
          </mxGeometry>
        </mxCell>
        <mxCell id="pSlSebkYDRzY324gOrCj-157" style="edgeStyle=none;shape=connector;rounded=0;orthogonalLoop=1;jettySize=auto;html=1;strokeColor=default;align=center;verticalAlign=middle;fontFamily=Helvetica;fontSize=11;fontColor=default;labelBackgroundColor=default;endArrow=none;endFill=0;" edge="1" parent="1" source="pSlSebkYDRzY324gOrCj-155" target="45yQKrNz5KwJR_Yoa7GH-11">
          <mxGeometry relative="1" as="geometry" />
        </mxCell>
        <mxCell id="pSlSebkYDRzY324gOrCj-136" style="edgeStyle=none;shape=connector;rounded=0;orthogonalLoop=1;jettySize=auto;html=1;strokeColor=default;align=center;verticalAlign=middle;fontFamily=Helvetica;fontSize=11;fontColor=default;labelBackgroundColor=default;endArrow=none;endFill=0;" edge="1" parent="1" source="45yQKrNz5KwJR_Yoa7GH-8" target="45yQKrNz5KwJR_Yoa7GH-9">
          <mxGeometry relative="1" as="geometry">
            <mxPoint x="-847.3677140996415" y="338.7352653858678" as="sourcePoint" />
          </mxGeometry>
        </mxCell>
        <mxCell id="pSlSebkYDRzY324gOrCj-115" style="edgeStyle=none;shape=connector;rounded=0;orthogonalLoop=1;jettySize=auto;html=1;strokeColor=default;align=center;verticalAlign=middle;fontFamily=Helvetica;fontSize=11;fontColor=default;labelBackgroundColor=default;endArrow=none;endFill=0;" edge="1" parent="1" source="45yQKrNz5KwJR_Yoa7GH-1" target="pSlSebkYDRzY324gOrCj-111">
          <mxGeometry relative="1" as="geometry" />
        </mxCell>
        <mxCell id="45yQKrNz5KwJR_Yoa7GH-1" value="product_category" style="whiteSpace=wrap;html=1;align=center;" parent="1" vertex="1">
          <mxGeometry x="-2040" y="171" width="120" height="50" as="geometry" />
        </mxCell>
        <mxCell id="pSlSebkYDRzY324gOrCj-75" value="" style="edgeStyle=none;shape=connector;rounded=0;orthogonalLoop=1;jettySize=auto;html=1;strokeColor=default;align=center;verticalAlign=middle;fontFamily=Helvetica;fontSize=11;fontColor=default;labelBackgroundColor=default;endArrow=none;endFill=0;" edge="1" parent="1" source="45yQKrNz5KwJR_Yoa7GH-2" target="45yQKrNz5KwJR_Yoa7GH-54">
          <mxGeometry relative="1" as="geometry" />
        </mxCell>
        <mxCell id="45yQKrNz5KwJR_Yoa7GH-2" value="product_inventory" style="whiteSpace=wrap;html=1;align=center;" parent="1" vertex="1">
          <mxGeometry x="-2050" y="669" width="120" height="50" as="geometry" />
        </mxCell>
        <mxCell id="pSlSebkYDRzY324gOrCj-113" style="edgeStyle=none;shape=connector;rounded=0;orthogonalLoop=1;jettySize=auto;html=1;strokeColor=default;align=center;verticalAlign=middle;fontFamily=Helvetica;fontSize=11;fontColor=default;labelBackgroundColor=default;endArrow=none;endFill=0;" edge="1" parent="1" source="45yQKrNz5KwJR_Yoa7GH-3" target="pSlSebkYDRzY324gOrCj-112">
          <mxGeometry relative="1" as="geometry">
            <mxPoint x="-1848" y="574" as="targetPoint" />
          </mxGeometry>
        </mxCell>
        <mxCell id="45yQKrNz5KwJR_Yoa7GH-3" value="discount" style="whiteSpace=wrap;html=1;align=center;" parent="1" vertex="1">
          <mxGeometry x="-2050" y="409" width="120" height="50" as="geometry" />
        </mxCell>
        <mxCell id="pSlSebkYDRzY324gOrCj-118" style="edgeStyle=none;shape=connector;rounded=0;orthogonalLoop=1;jettySize=auto;html=1;strokeColor=default;align=center;verticalAlign=middle;fontFamily=Helvetica;fontSize=11;fontColor=default;labelBackgroundColor=default;endArrow=none;endFill=0;" edge="1" parent="1" source="45yQKrNz5KwJR_Yoa7GH-4" target="pSlSebkYDRzY324gOrCj-117">
          <mxGeometry relative="1" as="geometry">
            <mxPoint x="-1508" y="584" as="targetPoint" />
          </mxGeometry>
        </mxCell>
        <mxCell id="pSlSebkYDRzY324gOrCj-122" style="edgeStyle=none;shape=connector;rounded=0;orthogonalLoop=1;jettySize=auto;html=1;strokeColor=default;align=center;verticalAlign=middle;fontFamily=Helvetica;fontSize=11;fontColor=default;labelBackgroundColor=default;endArrow=none;endFill=0;" edge="1" parent="1" source="45yQKrNz5KwJR_Yoa7GH-4" target="45yQKrNz5KwJR_Yoa7GH-9">
          <mxGeometry relative="1" as="geometry">
            <mxPoint x="-1250.7941176470588" y="392.08823529411757" as="targetPoint" />
          </mxGeometry>
        </mxCell>
        <mxCell id="pSlSebkYDRzY324gOrCj-125" style="edgeStyle=none;shape=connector;rounded=0;orthogonalLoop=1;jettySize=auto;html=1;strokeColor=default;align=center;verticalAlign=middle;fontFamily=Helvetica;fontSize=11;fontColor=default;labelBackgroundColor=default;endArrow=none;endFill=0;" edge="1" parent="1" source="45yQKrNz5KwJR_Yoa7GH-4" target="45yQKrNz5KwJR_Yoa7GH-6">
          <mxGeometry relative="1" as="geometry">
            <mxPoint x="-1320.5" y="541.5" as="targetPoint" />
          </mxGeometry>
        </mxCell>
        <mxCell id="45yQKrNz5KwJR_Yoa7GH-4" value="product" style="whiteSpace=wrap;html=1;align=center;" parent="1" vertex="1">
          <mxGeometry x="-1663" y="394" width="160" height="70" as="geometry" />
        </mxCell>
        <mxCell id="pSlSebkYDRzY324gOrCj-139" style="edgeStyle=none;shape=connector;rounded=0;orthogonalLoop=1;jettySize=auto;html=1;strokeColor=default;align=center;verticalAlign=middle;fontFamily=Helvetica;fontSize=11;fontColor=default;labelBackgroundColor=default;endArrow=none;endFill=0;" edge="1" parent="1" source="45yQKrNz5KwJR_Yoa7GH-5" target="45yQKrNz5KwJR_Yoa7GH-6">
          <mxGeometry relative="1" as="geometry">
            <mxPoint x="-826.2341526520054" y="610.3860654222879" as="targetPoint" />
          </mxGeometry>
        </mxCell>
        <mxCell id="45yQKrNz5KwJR_Yoa7GH-5" value="order_details" style="whiteSpace=wrap;html=1;align=center;" parent="1" vertex="1">
          <mxGeometry x="-1098" y="679" width="120" height="50" as="geometry" />
        </mxCell>
        <mxCell id="45yQKrNz5KwJR_Yoa7GH-6" value="order_items" style="whiteSpace=wrap;html=1;align=center;shape=associativeEntity;" parent="1" vertex="1">
          <mxGeometry x="-1420.5" y="676.5" width="120" height="50" as="geometry" />
        </mxCell>
        <mxCell id="pSlSebkYDRzY324gOrCj-153" style="edgeStyle=none;shape=connector;rounded=0;orthogonalLoop=1;jettySize=auto;html=1;strokeColor=default;align=center;verticalAlign=middle;fontFamily=Helvetica;fontSize=11;fontColor=default;labelBackgroundColor=default;endArrow=none;endFill=0;" edge="1" parent="1" source="45yQKrNz5KwJR_Yoa7GH-7" target="pSlSebkYDRzY324gOrCj-152">
          <mxGeometry relative="1" as="geometry">
            <mxPoint x="-264.88625836335586" y="455.3798250128666" as="targetPoint" />
          </mxGeometry>
        </mxCell>
        <mxCell id="pSlSebkYDRzY324gOrCj-156" style="edgeStyle=none;shape=connector;rounded=0;orthogonalLoop=1;jettySize=auto;html=1;strokeColor=default;align=center;verticalAlign=middle;fontFamily=Helvetica;fontSize=11;fontColor=default;labelBackgroundColor=default;endArrow=none;endFill=0;" edge="1" parent="1" source="45yQKrNz5KwJR_Yoa7GH-7" target="pSlSebkYDRzY324gOrCj-155">
          <mxGeometry relative="1" as="geometry" />
        </mxCell>
        <mxCell id="45yQKrNz5KwJR_Yoa7GH-7" value="user" style="whiteSpace=wrap;html=1;align=center;" parent="1" vertex="1">
          <mxGeometry x="-645.5" y="429" width="120" height="50" as="geometry" />
        </mxCell>
        <mxCell id="pSlSebkYDRzY324gOrCj-148" style="edgeStyle=none;shape=connector;rounded=0;orthogonalLoop=1;jettySize=auto;html=1;strokeColor=default;align=center;verticalAlign=middle;fontFamily=Helvetica;fontSize=11;fontColor=default;labelBackgroundColor=default;endArrow=none;endFill=0;" edge="1" parent="1" source="45yQKrNz5KwJR_Yoa7GH-8" target="pSlSebkYDRzY324gOrCj-149">
          <mxGeometry relative="1" as="geometry">
            <mxPoint x="-478" y="324" as="targetPoint" />
          </mxGeometry>
        </mxCell>
        <mxCell id="45yQKrNz5KwJR_Yoa7GH-8" value="shopping_session" style="whiteSpace=wrap;html=1;align=center;" parent="1" vertex="1">
          <mxGeometry x="-1091.82" y="171" width="120" height="50" as="geometry" />
        </mxCell>
        <mxCell id="45yQKrNz5KwJR_Yoa7GH-9" value="cart_item" style="whiteSpace=wrap;html=1;align=center;shape=associativeEntity;" parent="1" vertex="1">
          <mxGeometry x="-1436.75" y="166" width="120" height="50" as="geometry" />
        </mxCell>
        <mxCell id="pSlSebkYDRzY324gOrCj-142" style="edgeStyle=none;shape=connector;rounded=0;orthogonalLoop=1;jettySize=auto;html=1;strokeColor=default;align=center;verticalAlign=middle;fontFamily=Helvetica;fontSize=11;fontColor=default;labelBackgroundColor=default;endArrow=none;endFill=0;" edge="1" parent="1" source="45yQKrNz5KwJR_Yoa7GH-10" target="pSlSebkYDRzY324gOrCj-141">
          <mxGeometry relative="1" as="geometry" />
        </mxCell>
        <mxCell id="45yQKrNz5KwJR_Yoa7GH-10" value="payment_details" style="whiteSpace=wrap;html=1;align=center;" parent="1" vertex="1">
          <mxGeometry x="-1096.82" y="416" width="120" height="50" as="geometry" />
        </mxCell>
        <mxCell id="45yQKrNz5KwJR_Yoa7GH-11" value="user_address" style="whiteSpace=wrap;html=1;align=center;" parent="1" vertex="1">
          <mxGeometry x="-344" y="170" width="120" height="50" as="geometry" />
        </mxCell>
        <mxCell id="45yQKrNz5KwJR_Yoa7GH-12" value="user_payment" style="whiteSpace=wrap;html=1;align=center;" parent="1" vertex="1">
          <mxGeometry x="-269.5" y="686" width="120" height="50" as="geometry" />
        </mxCell>
        <mxCell id="pSlSebkYDRzY324gOrCj-42" style="edgeStyle=none;shape=connector;rounded=0;orthogonalLoop=1;jettySize=auto;html=1;strokeColor=default;align=center;verticalAlign=middle;fontFamily=Helvetica;fontSize=11;fontColor=default;labelBackgroundColor=default;endArrow=none;endFill=0;" edge="1" parent="1" source="45yQKrNz5KwJR_Yoa7GH-14" target="45yQKrNz5KwJR_Yoa7GH-1">
          <mxGeometry relative="1" as="geometry" />
        </mxCell>
        <mxCell id="45yQKrNz5KwJR_Yoa7GH-14" value="id" style="ellipse;whiteSpace=wrap;html=1;align=center;fontStyle=4" parent="1" vertex="1">
          <mxGeometry x="-2008" y="121" width="50" height="30" as="geometry" />
        </mxCell>
        <mxCell id="pSlSebkYDRzY324gOrCj-73" style="edgeStyle=none;shape=connector;rounded=0;orthogonalLoop=1;jettySize=auto;html=1;strokeColor=default;align=center;verticalAlign=middle;fontFamily=Helvetica;fontSize=11;fontColor=default;labelBackgroundColor=default;endArrow=none;endFill=0;" edge="1" parent="1" source="45yQKrNz5KwJR_Yoa7GH-15" target="45yQKrNz5KwJR_Yoa7GH-2">
          <mxGeometry relative="1" as="geometry" />
        </mxCell>
        <mxCell id="45yQKrNz5KwJR_Yoa7GH-15" value="id" style="ellipse;whiteSpace=wrap;html=1;align=center;fontStyle=4" parent="1" vertex="1">
          <mxGeometry x="-2110.5" y="659" width="50" height="30" as="geometry" />
        </mxCell>
        <mxCell id="pSlSebkYDRzY324gOrCj-67" style="edgeStyle=none;shape=connector;rounded=0;orthogonalLoop=1;jettySize=auto;html=1;strokeColor=default;align=center;verticalAlign=middle;fontFamily=Helvetica;fontSize=11;fontColor=default;labelBackgroundColor=default;endArrow=none;endFill=0;" edge="1" parent="1" source="45yQKrNz5KwJR_Yoa7GH-18" target="45yQKrNz5KwJR_Yoa7GH-9">
          <mxGeometry relative="1" as="geometry" />
        </mxCell>
        <mxCell id="45yQKrNz5KwJR_Yoa7GH-18" value="id" style="ellipse;whiteSpace=wrap;html=1;align=center;fontStyle=4" parent="1" vertex="1">
          <mxGeometry x="-1530.5" y="191" width="50" height="30" as="geometry" />
        </mxCell>
        <mxCell id="pSlSebkYDRzY324gOrCj-45" style="edgeStyle=none;shape=connector;rounded=0;orthogonalLoop=1;jettySize=auto;html=1;strokeColor=default;align=center;verticalAlign=middle;fontFamily=Helvetica;fontSize=11;fontColor=default;labelBackgroundColor=default;endArrow=none;endFill=0;" edge="1" parent="1" source="45yQKrNz5KwJR_Yoa7GH-19" target="45yQKrNz5KwJR_Yoa7GH-3">
          <mxGeometry relative="1" as="geometry" />
        </mxCell>
        <mxCell id="45yQKrNz5KwJR_Yoa7GH-19" value="id" style="ellipse;whiteSpace=wrap;html=1;align=center;fontStyle=4" parent="1" vertex="1">
          <mxGeometry x="-2125.5" y="369" width="50" height="30" as="geometry" />
        </mxCell>
        <mxCell id="pSlSebkYDRzY324gOrCj-89" style="edgeStyle=none;shape=connector;rounded=0;orthogonalLoop=1;jettySize=auto;html=1;strokeColor=default;align=center;verticalAlign=middle;fontFamily=Helvetica;fontSize=11;fontColor=default;labelBackgroundColor=default;endArrow=none;endFill=0;" edge="1" parent="1" source="45yQKrNz5KwJR_Yoa7GH-20" target="45yQKrNz5KwJR_Yoa7GH-5">
          <mxGeometry relative="1" as="geometry" />
        </mxCell>
        <mxCell id="45yQKrNz5KwJR_Yoa7GH-20" value="id" style="ellipse;whiteSpace=wrap;html=1;align=center;fontStyle=4" parent="1" vertex="1">
          <mxGeometry x="-1103" y="639" width="50" height="30" as="geometry" />
        </mxCell>
        <mxCell id="pSlSebkYDRzY324gOrCj-53" style="edgeStyle=none;shape=connector;rounded=0;orthogonalLoop=1;jettySize=auto;html=1;strokeColor=default;align=center;verticalAlign=middle;fontFamily=Helvetica;fontSize=11;fontColor=default;labelBackgroundColor=default;endArrow=none;endFill=0;" edge="1" parent="1" source="45yQKrNz5KwJR_Yoa7GH-21" target="45yQKrNz5KwJR_Yoa7GH-4">
          <mxGeometry relative="1" as="geometry" />
        </mxCell>
        <mxCell id="45yQKrNz5KwJR_Yoa7GH-21" value="id" style="ellipse;whiteSpace=wrap;html=1;align=center;fontStyle=4" parent="1" vertex="1">
          <mxGeometry x="-1738" y="369" width="50" height="30" as="geometry" />
        </mxCell>
        <mxCell id="pSlSebkYDRzY324gOrCj-76" style="edgeStyle=none;shape=connector;rounded=0;orthogonalLoop=1;jettySize=auto;html=1;strokeColor=default;align=center;verticalAlign=middle;fontFamily=Helvetica;fontSize=11;fontColor=default;labelBackgroundColor=default;endArrow=none;endFill=0;" edge="1" parent="1" source="45yQKrNz5KwJR_Yoa7GH-23" target="45yQKrNz5KwJR_Yoa7GH-6">
          <mxGeometry relative="1" as="geometry" />
        </mxCell>
        <mxCell id="45yQKrNz5KwJR_Yoa7GH-23" value="id" style="ellipse;whiteSpace=wrap;html=1;align=center;fontStyle=4" parent="1" vertex="1">
          <mxGeometry x="-1498" y="666.5" width="50" height="30" as="geometry" />
        </mxCell>
        <mxCell id="pSlSebkYDRzY324gOrCj-105" style="edgeStyle=none;shape=connector;rounded=0;orthogonalLoop=1;jettySize=auto;html=1;strokeColor=default;align=center;verticalAlign=middle;fontFamily=Helvetica;fontSize=11;fontColor=default;labelBackgroundColor=default;endArrow=none;endFill=0;" edge="1" parent="1" source="45yQKrNz5KwJR_Yoa7GH-24" target="45yQKrNz5KwJR_Yoa7GH-12">
          <mxGeometry relative="1" as="geometry" />
        </mxCell>
        <mxCell id="45yQKrNz5KwJR_Yoa7GH-24" value="id" style="ellipse;whiteSpace=wrap;html=1;align=center;fontStyle=4" parent="1" vertex="1">
          <mxGeometry x="-149.5" y="646" width="50" height="30" as="geometry" />
        </mxCell>
        <mxCell id="pSlSebkYDRzY324gOrCj-163" style="edgeStyle=none;shape=connector;rounded=0;orthogonalLoop=1;jettySize=auto;html=1;strokeColor=default;align=center;verticalAlign=middle;fontFamily=Helvetica;fontSize=11;fontColor=default;labelBackgroundColor=default;endArrow=none;endFill=0;" edge="1" parent="1" source="45yQKrNz5KwJR_Yoa7GH-25" target="45yQKrNz5KwJR_Yoa7GH-11">
          <mxGeometry relative="1" as="geometry" />
        </mxCell>
        <mxCell id="45yQKrNz5KwJR_Yoa7GH-25" value="id" style="ellipse;whiteSpace=wrap;html=1;align=center;fontStyle=4" parent="1" vertex="1">
          <mxGeometry x="-344" y="125" width="50" height="30" as="geometry" />
        </mxCell>
        <mxCell id="pSlSebkYDRzY324gOrCj-132" style="edgeStyle=none;shape=connector;rounded=0;orthogonalLoop=1;jettySize=auto;html=1;strokeColor=default;align=center;verticalAlign=middle;fontFamily=Helvetica;fontSize=11;fontColor=default;labelBackgroundColor=default;endArrow=none;endFill=0;" edge="1" parent="1" source="45yQKrNz5KwJR_Yoa7GH-26" target="45yQKrNz5KwJR_Yoa7GH-10">
          <mxGeometry relative="1" as="geometry" />
        </mxCell>
        <mxCell id="45yQKrNz5KwJR_Yoa7GH-26" value="id" style="ellipse;whiteSpace=wrap;html=1;align=center;fontStyle=4" parent="1" vertex="1">
          <mxGeometry x="-951.8199999999999" y="410" width="50" height="30" as="geometry" />
        </mxCell>
        <mxCell id="pSlSebkYDRzY324gOrCj-97" style="edgeStyle=none;shape=connector;rounded=0;orthogonalLoop=1;jettySize=auto;html=1;strokeColor=default;align=center;verticalAlign=middle;fontFamily=Helvetica;fontSize=11;fontColor=default;labelBackgroundColor=default;endArrow=none;endFill=0;" edge="1" parent="1" source="45yQKrNz5KwJR_Yoa7GH-27" target="45yQKrNz5KwJR_Yoa7GH-7">
          <mxGeometry relative="1" as="geometry" />
        </mxCell>
        <mxCell id="45yQKrNz5KwJR_Yoa7GH-27" value="id" style="ellipse;whiteSpace=wrap;html=1;align=center;fontStyle=4" parent="1" vertex="1">
          <mxGeometry x="-698" y="379" width="50" height="30" as="geometry" />
        </mxCell>
        <mxCell id="pSlSebkYDRzY324gOrCj-83" style="edgeStyle=none;shape=connector;rounded=0;orthogonalLoop=1;jettySize=auto;html=1;strokeColor=default;align=center;verticalAlign=middle;fontFamily=Helvetica;fontSize=11;fontColor=default;labelBackgroundColor=default;endArrow=none;endFill=0;" edge="1" parent="1" source="45yQKrNz5KwJR_Yoa7GH-28" target="45yQKrNz5KwJR_Yoa7GH-8">
          <mxGeometry relative="1" as="geometry" />
        </mxCell>
        <mxCell id="45yQKrNz5KwJR_Yoa7GH-28" value="id" style="ellipse;whiteSpace=wrap;html=1;align=center;fontStyle=4" parent="1" vertex="1">
          <mxGeometry x="-1101.82" y="131" width="50" height="30" as="geometry" />
        </mxCell>
        <mxCell id="pSlSebkYDRzY324gOrCj-44" style="edgeStyle=none;shape=connector;rounded=0;orthogonalLoop=1;jettySize=auto;html=1;strokeColor=default;align=center;verticalAlign=middle;fontFamily=Helvetica;fontSize=11;fontColor=default;labelBackgroundColor=default;endArrow=none;endFill=0;" edge="1" parent="1" source="45yQKrNz5KwJR_Yoa7GH-29" target="45yQKrNz5KwJR_Yoa7GH-1">
          <mxGeometry relative="1" as="geometry" />
        </mxCell>
        <mxCell id="45yQKrNz5KwJR_Yoa7GH-29" value="created_at" style="ellipse;whiteSpace=wrap;html=1;align=center;" parent="1" vertex="1">
          <mxGeometry x="-2158" y="161" width="100" height="30" as="geometry" />
        </mxCell>
        <mxCell id="pSlSebkYDRzY324gOrCj-39" style="rounded=0;orthogonalLoop=1;jettySize=auto;html=1;endArrow=none;endFill=0;" edge="1" parent="1" source="45yQKrNz5KwJR_Yoa7GH-30" target="45yQKrNz5KwJR_Yoa7GH-1">
          <mxGeometry relative="1" as="geometry" />
        </mxCell>
        <mxCell id="45yQKrNz5KwJR_Yoa7GH-30" value="modified_at" style="ellipse;whiteSpace=wrap;html=1;align=center;" parent="1" vertex="1">
          <mxGeometry x="-2158" y="208" width="100" height="30" as="geometry" />
        </mxCell>
        <mxCell id="pSlSebkYDRzY324gOrCj-70" style="edgeStyle=none;shape=connector;rounded=0;orthogonalLoop=1;jettySize=auto;html=1;strokeColor=default;align=center;verticalAlign=middle;fontFamily=Helvetica;fontSize=11;fontColor=default;labelBackgroundColor=default;endArrow=none;endFill=0;" edge="1" parent="1" source="45yQKrNz5KwJR_Yoa7GH-31" target="45yQKrNz5KwJR_Yoa7GH-2">
          <mxGeometry relative="1" as="geometry" />
        </mxCell>
        <mxCell id="45yQKrNz5KwJR_Yoa7GH-31" value="modified_at" style="ellipse;whiteSpace=wrap;html=1;align=center;" parent="1" vertex="1">
          <mxGeometry x="-2125.5" y="729" width="100" height="30" as="geometry" />
        </mxCell>
        <mxCell id="pSlSebkYDRzY324gOrCj-71" style="edgeStyle=none;shape=connector;rounded=0;orthogonalLoop=1;jettySize=auto;html=1;strokeColor=default;align=center;verticalAlign=middle;fontFamily=Helvetica;fontSize=11;fontColor=default;labelBackgroundColor=default;endArrow=none;endFill=0;" edge="1" parent="1" source="45yQKrNz5KwJR_Yoa7GH-32" target="45yQKrNz5KwJR_Yoa7GH-2">
          <mxGeometry relative="1" as="geometry" />
        </mxCell>
        <mxCell id="45yQKrNz5KwJR_Yoa7GH-32" value="created_at" style="ellipse;whiteSpace=wrap;html=1;align=center;" parent="1" vertex="1">
          <mxGeometry x="-1950.5" y="729" width="100" height="30" as="geometry" />
        </mxCell>
        <mxCell id="pSlSebkYDRzY324gOrCj-94" style="edgeStyle=none;shape=connector;rounded=0;orthogonalLoop=1;jettySize=auto;html=1;strokeColor=default;align=center;verticalAlign=middle;fontFamily=Helvetica;fontSize=11;fontColor=default;labelBackgroundColor=default;endArrow=none;endFill=0;" edge="1" parent="1" source="45yQKrNz5KwJR_Yoa7GH-33" target="45yQKrNz5KwJR_Yoa7GH-5">
          <mxGeometry relative="1" as="geometry" />
        </mxCell>
        <mxCell id="45yQKrNz5KwJR_Yoa7GH-33" value="created_at" style="ellipse;whiteSpace=wrap;html=1;align=center;" parent="1" vertex="1">
          <mxGeometry x="-1151.82" y="756" width="100" height="30" as="geometry" />
        </mxCell>
        <mxCell id="pSlSebkYDRzY324gOrCj-93" style="edgeStyle=none;shape=connector;rounded=0;orthogonalLoop=1;jettySize=auto;html=1;strokeColor=default;align=center;verticalAlign=middle;fontFamily=Helvetica;fontSize=11;fontColor=default;labelBackgroundColor=default;endArrow=none;endFill=0;" edge="1" parent="1" source="45yQKrNz5KwJR_Yoa7GH-34" target="45yQKrNz5KwJR_Yoa7GH-5">
          <mxGeometry relative="1" as="geometry" />
        </mxCell>
        <mxCell id="45yQKrNz5KwJR_Yoa7GH-34" value="modified_at" style="ellipse;whiteSpace=wrap;html=1;align=center;" parent="1" vertex="1">
          <mxGeometry x="-1051.82" y="759" width="95" height="30" as="geometry" />
        </mxCell>
        <mxCell id="pSlSebkYDRzY324gOrCj-51" style="edgeStyle=none;shape=connector;rounded=0;orthogonalLoop=1;jettySize=auto;html=1;strokeColor=default;align=center;verticalAlign=middle;fontFamily=Helvetica;fontSize=11;fontColor=default;labelBackgroundColor=default;endArrow=none;endFill=0;" edge="1" parent="1" source="45yQKrNz5KwJR_Yoa7GH-35" target="45yQKrNz5KwJR_Yoa7GH-3">
          <mxGeometry relative="1" as="geometry" />
        </mxCell>
        <mxCell id="45yQKrNz5KwJR_Yoa7GH-35" value="created_at" style="ellipse;whiteSpace=wrap;html=1;align=center;" parent="1" vertex="1">
          <mxGeometry x="-2140" y="474" width="100" height="30" as="geometry" />
        </mxCell>
        <mxCell id="pSlSebkYDRzY324gOrCj-50" style="edgeStyle=none;shape=connector;rounded=0;orthogonalLoop=1;jettySize=auto;html=1;strokeColor=default;align=center;verticalAlign=middle;fontFamily=Helvetica;fontSize=11;fontColor=default;labelBackgroundColor=default;endArrow=none;endFill=0;" edge="1" parent="1" source="45yQKrNz5KwJR_Yoa7GH-36" target="45yQKrNz5KwJR_Yoa7GH-3">
          <mxGeometry relative="1" as="geometry" />
        </mxCell>
        <mxCell id="45yQKrNz5KwJR_Yoa7GH-36" value="modified_at" style="ellipse;whiteSpace=wrap;html=1;align=center;" parent="1" vertex="1">
          <mxGeometry x="-2030" y="479" width="100" height="30" as="geometry" />
        </mxCell>
        <mxCell id="pSlSebkYDRzY324gOrCj-81" style="edgeStyle=none;shape=connector;rounded=0;orthogonalLoop=1;jettySize=auto;html=1;strokeColor=default;align=center;verticalAlign=middle;fontFamily=Helvetica;fontSize=11;fontColor=default;labelBackgroundColor=default;endArrow=none;endFill=0;" edge="1" parent="1" source="45yQKrNz5KwJR_Yoa7GH-37" target="45yQKrNz5KwJR_Yoa7GH-6">
          <mxGeometry relative="1" as="geometry" />
        </mxCell>
        <mxCell id="45yQKrNz5KwJR_Yoa7GH-37" value="created_at" style="ellipse;whiteSpace=wrap;html=1;align=center;" parent="1" vertex="1">
          <mxGeometry x="-1530.5" y="711.5" width="100" height="30" as="geometry" />
        </mxCell>
        <mxCell id="pSlSebkYDRzY324gOrCj-80" style="edgeStyle=none;shape=connector;rounded=0;orthogonalLoop=1;jettySize=auto;html=1;strokeColor=default;align=center;verticalAlign=middle;fontFamily=Helvetica;fontSize=11;fontColor=default;labelBackgroundColor=default;endArrow=none;endFill=0;" edge="1" parent="1" source="45yQKrNz5KwJR_Yoa7GH-38" target="45yQKrNz5KwJR_Yoa7GH-6">
          <mxGeometry relative="1" as="geometry" />
        </mxCell>
        <mxCell id="45yQKrNz5KwJR_Yoa7GH-38" value="modified_at" style="ellipse;whiteSpace=wrap;html=1;align=center;" parent="1" vertex="1">
          <mxGeometry x="-1460.5" y="741.5" width="100" height="30" as="geometry" />
        </mxCell>
        <mxCell id="pSlSebkYDRzY324gOrCj-107" style="edgeStyle=none;shape=connector;rounded=0;orthogonalLoop=1;jettySize=auto;html=1;strokeColor=default;align=center;verticalAlign=middle;fontFamily=Helvetica;fontSize=11;fontColor=default;labelBackgroundColor=default;endArrow=none;endFill=0;" edge="1" parent="1" source="45yQKrNz5KwJR_Yoa7GH-39" target="45yQKrNz5KwJR_Yoa7GH-12">
          <mxGeometry relative="1" as="geometry" />
        </mxCell>
        <mxCell id="45yQKrNz5KwJR_Yoa7GH-39" value="created_at" style="ellipse;whiteSpace=wrap;html=1;align=center;" parent="1" vertex="1">
          <mxGeometry x="-299.5" y="756" width="100" height="30" as="geometry" />
        </mxCell>
        <mxCell id="pSlSebkYDRzY324gOrCj-106" style="edgeStyle=none;shape=connector;rounded=0;orthogonalLoop=1;jettySize=auto;html=1;strokeColor=default;align=center;verticalAlign=middle;fontFamily=Helvetica;fontSize=11;fontColor=default;labelBackgroundColor=default;endArrow=none;endFill=0;" edge="1" parent="1" source="45yQKrNz5KwJR_Yoa7GH-40" target="45yQKrNz5KwJR_Yoa7GH-12">
          <mxGeometry relative="1" as="geometry" />
        </mxCell>
        <mxCell id="45yQKrNz5KwJR_Yoa7GH-40" value="modified_at" style="ellipse;whiteSpace=wrap;html=1;align=center;" parent="1" vertex="1">
          <mxGeometry x="-199.5" y="756" width="100" height="30" as="geometry" />
        </mxCell>
        <mxCell id="pSlSebkYDRzY324gOrCj-131" style="edgeStyle=none;shape=connector;rounded=0;orthogonalLoop=1;jettySize=auto;html=1;strokeColor=default;align=center;verticalAlign=middle;fontFamily=Helvetica;fontSize=11;fontColor=default;labelBackgroundColor=default;endArrow=none;endFill=0;" edge="1" parent="1" source="45yQKrNz5KwJR_Yoa7GH-43" target="45yQKrNz5KwJR_Yoa7GH-10">
          <mxGeometry relative="1" as="geometry" />
        </mxCell>
        <mxCell id="45yQKrNz5KwJR_Yoa7GH-43" value="created_at" style="ellipse;whiteSpace=wrap;html=1;align=center;" parent="1" vertex="1">
          <mxGeometry x="-977.9999999999999" y="369" width="100" height="30" as="geometry" />
        </mxCell>
        <mxCell id="pSlSebkYDRzY324gOrCj-130" style="edgeStyle=none;shape=connector;rounded=0;orthogonalLoop=1;jettySize=auto;html=1;strokeColor=default;align=center;verticalAlign=middle;fontFamily=Helvetica;fontSize=11;fontColor=default;labelBackgroundColor=default;endArrow=none;endFill=0;" edge="1" parent="1" source="45yQKrNz5KwJR_Yoa7GH-44" target="45yQKrNz5KwJR_Yoa7GH-10">
          <mxGeometry relative="1" as="geometry" />
        </mxCell>
        <mxCell id="45yQKrNz5KwJR_Yoa7GH-44" value="modified_at" style="ellipse;whiteSpace=wrap;html=1;align=center;" parent="1" vertex="1">
          <mxGeometry x="-1086.82" y="356" width="100" height="30" as="geometry" />
        </mxCell>
        <mxCell id="pSlSebkYDRzY324gOrCj-102" style="edgeStyle=none;shape=connector;rounded=0;orthogonalLoop=1;jettySize=auto;html=1;strokeColor=default;align=center;verticalAlign=middle;fontFamily=Helvetica;fontSize=11;fontColor=default;labelBackgroundColor=default;endArrow=none;endFill=0;" edge="1" parent="1" source="45yQKrNz5KwJR_Yoa7GH-45" target="45yQKrNz5KwJR_Yoa7GH-7">
          <mxGeometry relative="1" as="geometry" />
        </mxCell>
        <mxCell id="45yQKrNz5KwJR_Yoa7GH-45" value="created_at" style="ellipse;whiteSpace=wrap;html=1;align=center;" parent="1" vertex="1">
          <mxGeometry x="-525.5" y="399" width="100" height="30" as="geometry" />
        </mxCell>
        <mxCell id="pSlSebkYDRzY324gOrCj-101" style="edgeStyle=none;shape=connector;rounded=0;orthogonalLoop=1;jettySize=auto;html=1;strokeColor=default;align=center;verticalAlign=middle;fontFamily=Helvetica;fontSize=11;fontColor=default;labelBackgroundColor=default;endArrow=none;endFill=0;" edge="1" parent="1" source="45yQKrNz5KwJR_Yoa7GH-46" target="45yQKrNz5KwJR_Yoa7GH-7">
          <mxGeometry relative="1" as="geometry" />
        </mxCell>
        <mxCell id="45yQKrNz5KwJR_Yoa7GH-46" value="modified_at" style="ellipse;whiteSpace=wrap;html=1;align=center;" parent="1" vertex="1">
          <mxGeometry x="-508" y="454" width="100" height="30" as="geometry" />
        </mxCell>
        <mxCell id="pSlSebkYDRzY324gOrCj-87" style="edgeStyle=none;shape=connector;rounded=0;orthogonalLoop=1;jettySize=auto;html=1;strokeColor=default;align=center;verticalAlign=middle;fontFamily=Helvetica;fontSize=11;fontColor=default;labelBackgroundColor=default;endArrow=none;endFill=0;" edge="1" parent="1" source="45yQKrNz5KwJR_Yoa7GH-47" target="45yQKrNz5KwJR_Yoa7GH-8">
          <mxGeometry relative="1" as="geometry" />
        </mxCell>
        <mxCell id="45yQKrNz5KwJR_Yoa7GH-47" value="created_at" style="ellipse;whiteSpace=wrap;html=1;align=center;" parent="1" vertex="1">
          <mxGeometry x="-1121.82" y="231" width="100" height="30" as="geometry" />
        </mxCell>
        <mxCell id="pSlSebkYDRzY324gOrCj-86" style="edgeStyle=none;shape=connector;rounded=0;orthogonalLoop=1;jettySize=auto;html=1;strokeColor=default;align=center;verticalAlign=middle;fontFamily=Helvetica;fontSize=11;fontColor=default;labelBackgroundColor=default;endArrow=none;endFill=0;" edge="1" parent="1" source="45yQKrNz5KwJR_Yoa7GH-48" target="45yQKrNz5KwJR_Yoa7GH-8">
          <mxGeometry relative="1" as="geometry" />
        </mxCell>
        <mxCell id="45yQKrNz5KwJR_Yoa7GH-48" value="modified_at" style="ellipse;whiteSpace=wrap;html=1;align=center;" parent="1" vertex="1">
          <mxGeometry x="-1021.82" y="231" width="100" height="30" as="geometry" />
        </mxCell>
        <mxCell id="pSlSebkYDRzY324gOrCj-65" style="edgeStyle=none;shape=connector;rounded=0;orthogonalLoop=1;jettySize=auto;html=1;strokeColor=default;align=center;verticalAlign=middle;fontFamily=Helvetica;fontSize=11;fontColor=default;labelBackgroundColor=default;endArrow=none;endFill=0;" edge="1" parent="1" source="45yQKrNz5KwJR_Yoa7GH-49" target="45yQKrNz5KwJR_Yoa7GH-9">
          <mxGeometry relative="1" as="geometry" />
        </mxCell>
        <mxCell id="45yQKrNz5KwJR_Yoa7GH-49" value="created_at" style="ellipse;whiteSpace=wrap;html=1;align=center;" parent="1" vertex="1">
          <mxGeometry x="-1466.75" y="126" width="100" height="30" as="geometry" />
        </mxCell>
        <mxCell id="pSlSebkYDRzY324gOrCj-66" style="edgeStyle=none;shape=connector;rounded=0;orthogonalLoop=1;jettySize=auto;html=1;strokeColor=default;align=center;verticalAlign=middle;fontFamily=Helvetica;fontSize=11;fontColor=default;labelBackgroundColor=default;endArrow=none;endFill=0;" edge="1" parent="1" source="45yQKrNz5KwJR_Yoa7GH-50" target="45yQKrNz5KwJR_Yoa7GH-9">
          <mxGeometry relative="1" as="geometry" />
        </mxCell>
        <mxCell id="45yQKrNz5KwJR_Yoa7GH-50" value="modified_at" style="ellipse;whiteSpace=wrap;html=1;align=center;" parent="1" vertex="1">
          <mxGeometry x="-1366.75" y="126" width="100" height="30" as="geometry" />
        </mxCell>
        <mxCell id="pSlSebkYDRzY324gOrCj-59" style="edgeStyle=none;shape=connector;rounded=0;orthogonalLoop=1;jettySize=auto;html=1;strokeColor=default;align=center;verticalAlign=middle;fontFamily=Helvetica;fontSize=11;fontColor=default;labelBackgroundColor=default;endArrow=none;endFill=0;" edge="1" parent="1" source="45yQKrNz5KwJR_Yoa7GH-51" target="45yQKrNz5KwJR_Yoa7GH-4">
          <mxGeometry relative="1" as="geometry" />
        </mxCell>
        <mxCell id="45yQKrNz5KwJR_Yoa7GH-51" value="created_at" style="ellipse;whiteSpace=wrap;html=1;align=center;" parent="1" vertex="1">
          <mxGeometry x="-1448" y="384" width="100" height="30" as="geometry" />
        </mxCell>
        <mxCell id="pSlSebkYDRzY324gOrCj-58" style="edgeStyle=none;shape=connector;rounded=0;orthogonalLoop=1;jettySize=auto;html=1;strokeColor=default;align=center;verticalAlign=middle;fontFamily=Helvetica;fontSize=11;fontColor=default;labelBackgroundColor=default;endArrow=none;endFill=0;" edge="1" parent="1" source="45yQKrNz5KwJR_Yoa7GH-52" target="45yQKrNz5KwJR_Yoa7GH-4">
          <mxGeometry relative="1" as="geometry" />
        </mxCell>
        <mxCell id="45yQKrNz5KwJR_Yoa7GH-52" value="modified_at" style="ellipse;whiteSpace=wrap;html=1;align=center;" parent="1" vertex="1">
          <mxGeometry x="-1488" y="342" width="100" height="30" as="geometry" />
        </mxCell>
        <mxCell id="pSlSebkYDRzY324gOrCj-40" style="edgeStyle=none;shape=connector;rounded=0;orthogonalLoop=1;jettySize=auto;html=1;strokeColor=default;align=center;verticalAlign=middle;fontFamily=Helvetica;fontSize=11;fontColor=default;labelBackgroundColor=default;endArrow=none;endFill=0;" edge="1" parent="1" source="45yQKrNz5KwJR_Yoa7GH-53" target="45yQKrNz5KwJR_Yoa7GH-1">
          <mxGeometry relative="1" as="geometry" />
        </mxCell>
        <mxCell id="45yQKrNz5KwJR_Yoa7GH-53" value="deleted_at" style="ellipse;whiteSpace=wrap;html=1;align=center;" parent="1" vertex="1">
          <mxGeometry x="-2068" y="231" width="100" height="30" as="geometry" />
        </mxCell>
        <mxCell id="45yQKrNz5KwJR_Yoa7GH-54" value="deleted_at" style="ellipse;whiteSpace=wrap;html=1;align=center;" parent="1" vertex="1">
          <mxGeometry x="-2030" y="749" width="100" height="30" as="geometry" />
        </mxCell>
        <mxCell id="pSlSebkYDRzY324gOrCj-48" style="edgeStyle=none;shape=connector;rounded=0;orthogonalLoop=1;jettySize=auto;html=1;strokeColor=default;align=center;verticalAlign=middle;fontFamily=Helvetica;fontSize=11;fontColor=default;labelBackgroundColor=default;endArrow=none;endFill=0;" edge="1" parent="1" source="45yQKrNz5KwJR_Yoa7GH-55" target="45yQKrNz5KwJR_Yoa7GH-3">
          <mxGeometry relative="1" as="geometry" />
        </mxCell>
        <mxCell id="45yQKrNz5KwJR_Yoa7GH-55" value="deleted_at" style="ellipse;whiteSpace=wrap;html=1;align=center;" parent="1" vertex="1">
          <mxGeometry x="-2025.5" y="354" width="100" height="30" as="geometry" />
        </mxCell>
        <mxCell id="pSlSebkYDRzY324gOrCj-60" style="edgeStyle=none;shape=connector;rounded=0;orthogonalLoop=1;jettySize=auto;html=1;strokeColor=default;align=center;verticalAlign=middle;fontFamily=Helvetica;fontSize=11;fontColor=default;labelBackgroundColor=default;endArrow=none;endFill=0;" edge="1" parent="1" source="45yQKrNz5KwJR_Yoa7GH-56" target="45yQKrNz5KwJR_Yoa7GH-4">
          <mxGeometry relative="1" as="geometry" />
        </mxCell>
        <mxCell id="45yQKrNz5KwJR_Yoa7GH-56" value="deleted_at" style="ellipse;whiteSpace=wrap;html=1;align=center;" parent="1" vertex="1">
          <mxGeometry x="-1403" y="419" width="100" height="30" as="geometry" />
        </mxCell>
        <mxCell id="pSlSebkYDRzY324gOrCj-57" style="edgeStyle=none;shape=connector;rounded=0;orthogonalLoop=1;jettySize=auto;html=1;strokeColor=default;align=center;verticalAlign=middle;fontFamily=Helvetica;fontSize=11;fontColor=default;labelBackgroundColor=default;endArrow=none;endFill=0;" edge="1" parent="1" source="45yQKrNz5KwJR_Yoa7GH-58" target="45yQKrNz5KwJR_Yoa7GH-4">
          <mxGeometry relative="1" as="geometry" />
        </mxCell>
        <mxCell id="45yQKrNz5KwJR_Yoa7GH-58" value="name" style="ellipse;whiteSpace=wrap;html=1;align=center;" parent="1" vertex="1">
          <mxGeometry x="-1553" y="311" width="50" height="30" as="geometry" />
        </mxCell>
        <mxCell id="pSlSebkYDRzY324gOrCj-41" style="edgeStyle=none;shape=connector;rounded=0;orthogonalLoop=1;jettySize=auto;html=1;strokeColor=default;align=center;verticalAlign=middle;fontFamily=Helvetica;fontSize=11;fontColor=default;labelBackgroundColor=default;endArrow=none;endFill=0;" edge="1" parent="1" source="45yQKrNz5KwJR_Yoa7GH-59" target="45yQKrNz5KwJR_Yoa7GH-1">
          <mxGeometry relative="1" as="geometry" />
        </mxCell>
        <mxCell id="45yQKrNz5KwJR_Yoa7GH-59" value="name" style="ellipse;whiteSpace=wrap;html=1;align=center;" parent="1" vertex="1">
          <mxGeometry x="-1948" y="121" width="50" height="30" as="geometry" />
        </mxCell>
        <mxCell id="pSlSebkYDRzY324gOrCj-43" style="edgeStyle=none;shape=connector;rounded=0;orthogonalLoop=1;jettySize=auto;html=1;strokeColor=default;align=center;verticalAlign=middle;fontFamily=Helvetica;fontSize=11;fontColor=default;labelBackgroundColor=default;endArrow=none;endFill=0;" edge="1" parent="1" source="45yQKrNz5KwJR_Yoa7GH-60" target="45yQKrNz5KwJR_Yoa7GH-1">
          <mxGeometry relative="1" as="geometry" />
        </mxCell>
        <mxCell id="45yQKrNz5KwJR_Yoa7GH-60" value="desc" style="ellipse;whiteSpace=wrap;html=1;align=center;" parent="1" vertex="1">
          <mxGeometry x="-2068" y="121" width="50" height="30" as="geometry" />
        </mxCell>
        <mxCell id="pSlSebkYDRzY324gOrCj-72" style="edgeStyle=none;shape=connector;rounded=0;orthogonalLoop=1;jettySize=auto;html=1;strokeColor=default;align=center;verticalAlign=middle;fontFamily=Helvetica;fontSize=11;fontColor=default;labelBackgroundColor=default;endArrow=none;endFill=0;" edge="1" parent="1" source="45yQKrNz5KwJR_Yoa7GH-61" target="45yQKrNz5KwJR_Yoa7GH-2">
          <mxGeometry relative="1" as="geometry" />
        </mxCell>
        <mxCell id="45yQKrNz5KwJR_Yoa7GH-61" value="quantity" style="ellipse;whiteSpace=wrap;html=1;align=center;" parent="1" vertex="1">
          <mxGeometry x="-2075.5" y="629" width="100" height="30" as="geometry" />
        </mxCell>
        <mxCell id="pSlSebkYDRzY324gOrCj-46" style="edgeStyle=none;shape=connector;rounded=0;orthogonalLoop=1;jettySize=auto;html=1;strokeColor=default;align=center;verticalAlign=middle;fontFamily=Helvetica;fontSize=11;fontColor=default;labelBackgroundColor=default;endArrow=none;endFill=0;" edge="1" parent="1" source="45yQKrNz5KwJR_Yoa7GH-62" target="45yQKrNz5KwJR_Yoa7GH-3">
          <mxGeometry relative="1" as="geometry" />
        </mxCell>
        <mxCell id="45yQKrNz5KwJR_Yoa7GH-62" value="name" style="ellipse;whiteSpace=wrap;html=1;align=center;" parent="1" vertex="1">
          <mxGeometry x="-2133" y="434" width="50" height="30" as="geometry" />
        </mxCell>
        <mxCell id="pSlSebkYDRzY324gOrCj-47" style="edgeStyle=none;shape=connector;rounded=0;orthogonalLoop=1;jettySize=auto;html=1;strokeColor=default;align=center;verticalAlign=middle;fontFamily=Helvetica;fontSize=11;fontColor=default;labelBackgroundColor=default;endArrow=none;endFill=0;" edge="1" parent="1" source="45yQKrNz5KwJR_Yoa7GH-64" target="45yQKrNz5KwJR_Yoa7GH-3">
          <mxGeometry relative="1" as="geometry" />
        </mxCell>
        <mxCell id="45yQKrNz5KwJR_Yoa7GH-64" value="desc" style="ellipse;whiteSpace=wrap;html=1;align=center;" parent="1" vertex="1">
          <mxGeometry x="-2080" y="359" width="50" height="30" as="geometry" />
        </mxCell>
        <mxCell id="pSlSebkYDRzY324gOrCj-49" style="edgeStyle=none;shape=connector;rounded=0;orthogonalLoop=1;jettySize=auto;html=1;strokeColor=default;align=center;verticalAlign=middle;fontFamily=Helvetica;fontSize=11;fontColor=default;labelBackgroundColor=default;endArrow=none;endFill=0;" edge="1" parent="1" source="45yQKrNz5KwJR_Yoa7GH-65" target="45yQKrNz5KwJR_Yoa7GH-3">
          <mxGeometry relative="1" as="geometry" />
        </mxCell>
        <mxCell id="45yQKrNz5KwJR_Yoa7GH-65" value="discount_percent" style="ellipse;whiteSpace=wrap;html=1;align=center;" parent="1" vertex="1">
          <mxGeometry x="-1930" y="464" width="100" height="30" as="geometry" />
        </mxCell>
        <mxCell id="pSlSebkYDRzY324gOrCj-52" style="edgeStyle=none;shape=connector;rounded=0;orthogonalLoop=1;jettySize=auto;html=1;strokeColor=default;align=center;verticalAlign=middle;fontFamily=Helvetica;fontSize=11;fontColor=default;labelBackgroundColor=default;endArrow=none;endFill=0;" edge="1" parent="1" source="45yQKrNz5KwJR_Yoa7GH-66" target="45yQKrNz5KwJR_Yoa7GH-3">
          <mxGeometry relative="1" as="geometry" />
        </mxCell>
        <mxCell id="45yQKrNz5KwJR_Yoa7GH-66" value="active" style="ellipse;whiteSpace=wrap;html=1;align=center;" parent="1" vertex="1">
          <mxGeometry x="-2158" y="399" width="65" height="30" as="geometry" />
        </mxCell>
        <mxCell id="pSlSebkYDRzY324gOrCj-54" style="edgeStyle=none;shape=connector;rounded=0;orthogonalLoop=1;jettySize=auto;html=1;strokeColor=default;align=center;verticalAlign=middle;fontFamily=Helvetica;fontSize=11;fontColor=default;labelBackgroundColor=default;endArrow=none;endFill=0;" edge="1" parent="1" source="45yQKrNz5KwJR_Yoa7GH-68" target="45yQKrNz5KwJR_Yoa7GH-4">
          <mxGeometry relative="1" as="geometry" />
        </mxCell>
        <mxCell id="45yQKrNz5KwJR_Yoa7GH-68" value="desc" style="ellipse;whiteSpace=wrap;html=1;align=center;" parent="1" vertex="1">
          <mxGeometry x="-1441.75" y="440" width="50" height="30" as="geometry" />
        </mxCell>
        <mxCell id="pSlSebkYDRzY324gOrCj-55" style="edgeStyle=none;shape=connector;rounded=0;orthogonalLoop=1;jettySize=auto;html=1;strokeColor=default;align=center;verticalAlign=middle;fontFamily=Helvetica;fontSize=11;fontColor=default;labelBackgroundColor=default;endArrow=none;endFill=0;" edge="1" parent="1" source="45yQKrNz5KwJR_Yoa7GH-69" target="45yQKrNz5KwJR_Yoa7GH-4">
          <mxGeometry relative="1" as="geometry" />
        </mxCell>
        <mxCell id="45yQKrNz5KwJR_Yoa7GH-69" value="SKU" style="ellipse;whiteSpace=wrap;html=1;align=center;" parent="1" vertex="1">
          <mxGeometry x="-1480.5" y="469" width="50" height="30" as="geometry" />
        </mxCell>
        <mxCell id="pSlSebkYDRzY324gOrCj-62" style="edgeStyle=none;shape=connector;rounded=0;orthogonalLoop=1;jettySize=auto;html=1;strokeColor=default;align=center;verticalAlign=middle;fontFamily=Helvetica;fontSize=11;fontColor=default;labelBackgroundColor=default;endArrow=none;endFill=0;" edge="1" parent="1" source="45yQKrNz5KwJR_Yoa7GH-72" target="45yQKrNz5KwJR_Yoa7GH-4">
          <mxGeometry relative="1" as="geometry" />
        </mxCell>
        <mxCell id="45yQKrNz5KwJR_Yoa7GH-72" value="category_id" style="ellipse;whiteSpace=wrap;html=1;align=center;" parent="1" vertex="1">
          <mxGeometry x="-1688" y="342" width="88" height="30" as="geometry" />
        </mxCell>
        <mxCell id="pSlSebkYDRzY324gOrCj-61" style="edgeStyle=none;shape=connector;rounded=0;orthogonalLoop=1;jettySize=auto;html=1;strokeColor=default;align=center;verticalAlign=middle;fontFamily=Helvetica;fontSize=11;fontColor=default;labelBackgroundColor=default;endArrow=none;endFill=0;" edge="1" parent="1" source="45yQKrNz5KwJR_Yoa7GH-73" target="45yQKrNz5KwJR_Yoa7GH-4">
          <mxGeometry relative="1" as="geometry" />
        </mxCell>
        <mxCell id="45yQKrNz5KwJR_Yoa7GH-73" value="inventory_id" style="ellipse;whiteSpace=wrap;html=1;align=center;" parent="1" vertex="1">
          <mxGeometry x="-1670" y="484" width="100" height="30" as="geometry" />
        </mxCell>
        <mxCell id="pSlSebkYDRzY324gOrCj-56" style="edgeStyle=none;shape=connector;rounded=0;orthogonalLoop=1;jettySize=auto;html=1;strokeColor=default;align=center;verticalAlign=middle;fontFamily=Helvetica;fontSize=11;fontColor=default;labelBackgroundColor=default;endArrow=none;endFill=0;" edge="1" parent="1" source="45yQKrNz5KwJR_Yoa7GH-75" target="45yQKrNz5KwJR_Yoa7GH-4">
          <mxGeometry relative="1" as="geometry" />
        </mxCell>
        <mxCell id="45yQKrNz5KwJR_Yoa7GH-75" value="price" style="ellipse;whiteSpace=wrap;html=1;align=center;" parent="1" vertex="1">
          <mxGeometry x="-1613" y="311" width="50" height="30" as="geometry" />
        </mxCell>
        <mxCell id="pSlSebkYDRzY324gOrCj-63" style="edgeStyle=none;shape=connector;rounded=0;orthogonalLoop=1;jettySize=auto;html=1;strokeColor=default;align=center;verticalAlign=middle;fontFamily=Helvetica;fontSize=11;fontColor=default;labelBackgroundColor=default;endArrow=none;endFill=0;" edge="1" parent="1" source="pSlSebkYDRzY324gOrCj-1" target="45yQKrNz5KwJR_Yoa7GH-4">
          <mxGeometry relative="1" as="geometry" />
        </mxCell>
        <mxCell id="pSlSebkYDRzY324gOrCj-1" value="discount_id" style="ellipse;whiteSpace=wrap;html=1;align=center;" vertex="1" parent="1">
          <mxGeometry x="-1770" y="434" width="100" height="30" as="geometry" />
        </mxCell>
        <mxCell id="pSlSebkYDRzY324gOrCj-92" style="edgeStyle=none;shape=connector;rounded=0;orthogonalLoop=1;jettySize=auto;html=1;strokeColor=default;align=center;verticalAlign=middle;fontFamily=Helvetica;fontSize=11;fontColor=default;labelBackgroundColor=default;endArrow=none;endFill=0;" edge="1" parent="1" source="pSlSebkYDRzY324gOrCj-2" target="45yQKrNz5KwJR_Yoa7GH-5">
          <mxGeometry relative="1" as="geometry" />
        </mxCell>
        <mxCell id="pSlSebkYDRzY324gOrCj-2" value="quantity" style="ellipse;whiteSpace=wrap;html=1;align=center;" vertex="1" parent="1">
          <mxGeometry x="-1196.82" y="719" width="80" height="30" as="geometry" />
        </mxCell>
        <mxCell id="pSlSebkYDRzY324gOrCj-90" style="edgeStyle=none;shape=connector;rounded=0;orthogonalLoop=1;jettySize=auto;html=1;strokeColor=default;align=center;verticalAlign=middle;fontFamily=Helvetica;fontSize=11;fontColor=default;labelBackgroundColor=default;endArrow=none;endFill=0;" edge="1" parent="1" source="pSlSebkYDRzY324gOrCj-4" target="45yQKrNz5KwJR_Yoa7GH-5">
          <mxGeometry relative="1" as="geometry" />
        </mxCell>
        <mxCell id="pSlSebkYDRzY324gOrCj-4" value="payment_id" style="ellipse;whiteSpace=wrap;html=1;align=center;" vertex="1" parent="1">
          <mxGeometry x="-1030" y="639" width="100" height="30" as="geometry" />
        </mxCell>
        <mxCell id="pSlSebkYDRzY324gOrCj-88" style="edgeStyle=none;shape=connector;rounded=0;orthogonalLoop=1;jettySize=auto;html=1;strokeColor=default;align=center;verticalAlign=middle;fontFamily=Helvetica;fontSize=11;fontColor=default;labelBackgroundColor=default;endArrow=none;endFill=0;" edge="1" parent="1" source="pSlSebkYDRzY324gOrCj-5" target="45yQKrNz5KwJR_Yoa7GH-5">
          <mxGeometry relative="1" as="geometry" />
        </mxCell>
        <mxCell id="pSlSebkYDRzY324gOrCj-5" value="user_id" style="ellipse;whiteSpace=wrap;html=1;align=center;" vertex="1" parent="1">
          <mxGeometry x="-964.3199999999999" y="736" width="100" height="30" as="geometry" />
        </mxCell>
        <mxCell id="pSlSebkYDRzY324gOrCj-77" style="edgeStyle=none;shape=connector;rounded=0;orthogonalLoop=1;jettySize=auto;html=1;strokeColor=default;align=center;verticalAlign=middle;fontFamily=Helvetica;fontSize=11;fontColor=default;labelBackgroundColor=default;endArrow=none;endFill=0;" edge="1" parent="1" source="pSlSebkYDRzY324gOrCj-6" target="45yQKrNz5KwJR_Yoa7GH-6">
          <mxGeometry relative="1" as="geometry" />
        </mxCell>
        <mxCell id="pSlSebkYDRzY324gOrCj-6" value="order_id" style="ellipse;whiteSpace=wrap;html=1;align=center;" vertex="1" parent="1">
          <mxGeometry x="-1296.82" y="649" width="100" height="30" as="geometry" />
        </mxCell>
        <mxCell id="pSlSebkYDRzY324gOrCj-78" style="edgeStyle=none;shape=connector;rounded=0;orthogonalLoop=1;jettySize=auto;html=1;strokeColor=default;align=center;verticalAlign=middle;fontFamily=Helvetica;fontSize=11;fontColor=default;labelBackgroundColor=default;endArrow=none;endFill=0;" edge="1" parent="1" source="pSlSebkYDRzY324gOrCj-7" target="45yQKrNz5KwJR_Yoa7GH-6">
          <mxGeometry relative="1" as="geometry" />
        </mxCell>
        <mxCell id="pSlSebkYDRzY324gOrCj-7" value="product_id" style="ellipse;whiteSpace=wrap;html=1;align=center;" vertex="1" parent="1">
          <mxGeometry x="-1380" y="619" width="100" height="30" as="geometry" />
        </mxCell>
        <mxCell id="pSlSebkYDRzY324gOrCj-79" style="edgeStyle=none;shape=connector;rounded=0;orthogonalLoop=1;jettySize=auto;html=1;strokeColor=default;align=center;verticalAlign=middle;fontFamily=Helvetica;fontSize=11;fontColor=default;labelBackgroundColor=default;endArrow=none;endFill=0;" edge="1" parent="1" source="pSlSebkYDRzY324gOrCj-8" target="45yQKrNz5KwJR_Yoa7GH-6">
          <mxGeometry relative="1" as="geometry" />
        </mxCell>
        <mxCell id="pSlSebkYDRzY324gOrCj-8" value="quantity" style="ellipse;whiteSpace=wrap;html=1;align=center;" vertex="1" parent="1">
          <mxGeometry x="-1360.5" y="741.5" width="100" height="30" as="geometry" />
        </mxCell>
        <mxCell id="pSlSebkYDRzY324gOrCj-98" style="edgeStyle=none;shape=connector;rounded=0;orthogonalLoop=1;jettySize=auto;html=1;strokeColor=default;align=center;verticalAlign=middle;fontFamily=Helvetica;fontSize=11;fontColor=default;labelBackgroundColor=default;endArrow=none;endFill=0;" edge="1" parent="1" source="pSlSebkYDRzY324gOrCj-9" target="45yQKrNz5KwJR_Yoa7GH-7">
          <mxGeometry relative="1" as="geometry" />
        </mxCell>
        <mxCell id="pSlSebkYDRzY324gOrCj-9" value="username" style="ellipse;whiteSpace=wrap;html=1;align=center;" vertex="1" parent="1">
          <mxGeometry x="-635.5" y="334" width="100" height="30" as="geometry" />
        </mxCell>
        <mxCell id="pSlSebkYDRzY324gOrCj-96" style="edgeStyle=none;shape=connector;rounded=0;orthogonalLoop=1;jettySize=auto;html=1;strokeColor=default;align=center;verticalAlign=middle;fontFamily=Helvetica;fontSize=11;fontColor=default;labelBackgroundColor=default;endArrow=none;endFill=0;" edge="1" parent="1" source="pSlSebkYDRzY324gOrCj-10" target="45yQKrNz5KwJR_Yoa7GH-7">
          <mxGeometry relative="1" as="geometry" />
        </mxCell>
        <mxCell id="pSlSebkYDRzY324gOrCj-10" value="password" style="ellipse;whiteSpace=wrap;html=1;align=center;" vertex="1" parent="1">
          <mxGeometry x="-525.5" y="509" width="100" height="30" as="geometry" />
        </mxCell>
        <mxCell id="pSlSebkYDRzY324gOrCj-95" style="edgeStyle=none;shape=connector;rounded=0;orthogonalLoop=1;jettySize=auto;html=1;strokeColor=default;align=center;verticalAlign=middle;fontFamily=Helvetica;fontSize=11;fontColor=default;labelBackgroundColor=default;endArrow=none;endFill=0;" edge="1" parent="1" source="pSlSebkYDRzY324gOrCj-11" target="45yQKrNz5KwJR_Yoa7GH-7">
          <mxGeometry relative="1" as="geometry" />
        </mxCell>
        <mxCell id="pSlSebkYDRzY324gOrCj-11" value="first_name" style="ellipse;whiteSpace=wrap;html=1;align=center;" vertex="1" parent="1">
          <mxGeometry x="-798" y="469" width="100" height="30" as="geometry" />
        </mxCell>
        <mxCell id="pSlSebkYDRzY324gOrCj-99" style="edgeStyle=none;shape=connector;rounded=0;orthogonalLoop=1;jettySize=auto;html=1;strokeColor=default;align=center;verticalAlign=middle;fontFamily=Helvetica;fontSize=11;fontColor=default;labelBackgroundColor=default;endArrow=none;endFill=0;" edge="1" parent="1" source="pSlSebkYDRzY324gOrCj-12" target="45yQKrNz5KwJR_Yoa7GH-7">
          <mxGeometry relative="1" as="geometry" />
        </mxCell>
        <mxCell id="pSlSebkYDRzY324gOrCj-12" value="last_name" style="ellipse;whiteSpace=wrap;html=1;align=center;" vertex="1" parent="1">
          <mxGeometry x="-765.5" y="434" width="100" height="30" as="geometry" />
        </mxCell>
        <mxCell id="pSlSebkYDRzY324gOrCj-100" style="edgeStyle=none;shape=connector;rounded=0;orthogonalLoop=1;jettySize=auto;html=1;strokeColor=default;align=center;verticalAlign=middle;fontFamily=Helvetica;fontSize=11;fontColor=default;labelBackgroundColor=default;endArrow=none;endFill=0;" edge="1" parent="1" source="pSlSebkYDRzY324gOrCj-14" target="45yQKrNz5KwJR_Yoa7GH-7">
          <mxGeometry relative="1" as="geometry" />
        </mxCell>
        <mxCell id="pSlSebkYDRzY324gOrCj-14" value="telephone" style="ellipse;whiteSpace=wrap;html=1;align=center;" vertex="1" parent="1">
          <mxGeometry x="-625" y="544" width="75.5" height="30" as="geometry" />
        </mxCell>
        <mxCell id="pSlSebkYDRzY324gOrCj-84" style="edgeStyle=none;shape=connector;rounded=0;orthogonalLoop=1;jettySize=auto;html=1;strokeColor=default;align=center;verticalAlign=middle;fontFamily=Helvetica;fontSize=11;fontColor=default;labelBackgroundColor=default;endArrow=none;endFill=0;" edge="1" parent="1" source="pSlSebkYDRzY324gOrCj-16" target="45yQKrNz5KwJR_Yoa7GH-8">
          <mxGeometry relative="1" as="geometry" />
        </mxCell>
        <mxCell id="pSlSebkYDRzY324gOrCj-16" value="user_id" style="ellipse;whiteSpace=wrap;html=1;align=center;" vertex="1" parent="1">
          <mxGeometry x="-1051.8200000000002" y="131" width="100" height="30" as="geometry" />
        </mxCell>
        <mxCell id="pSlSebkYDRzY324gOrCj-85" style="edgeStyle=none;shape=connector;rounded=0;orthogonalLoop=1;jettySize=auto;html=1;strokeColor=default;align=center;verticalAlign=middle;fontFamily=Helvetica;fontSize=11;fontColor=default;labelBackgroundColor=default;endArrow=none;endFill=0;" edge="1" parent="1" source="pSlSebkYDRzY324gOrCj-17" target="45yQKrNz5KwJR_Yoa7GH-8">
          <mxGeometry relative="1" as="geometry" />
        </mxCell>
        <mxCell id="pSlSebkYDRzY324gOrCj-17" value="total" style="ellipse;whiteSpace=wrap;html=1;align=center;" vertex="1" parent="1">
          <mxGeometry x="-964.32" y="171" width="70" height="20" as="geometry" />
        </mxCell>
        <mxCell id="pSlSebkYDRzY324gOrCj-82" style="edgeStyle=none;shape=connector;rounded=0;orthogonalLoop=1;jettySize=auto;html=1;strokeColor=default;align=center;verticalAlign=middle;fontFamily=Helvetica;fontSize=11;fontColor=default;labelBackgroundColor=default;endArrow=none;endFill=0;" edge="1" parent="1" source="pSlSebkYDRzY324gOrCj-18" target="45yQKrNz5KwJR_Yoa7GH-8">
          <mxGeometry relative="1" as="geometry" />
        </mxCell>
        <mxCell id="pSlSebkYDRzY324gOrCj-18" value="deleted_at" style="ellipse;whiteSpace=wrap;html=1;align=center;" vertex="1" parent="1">
          <mxGeometry x="-1198" y="151" width="100" height="30" as="geometry" />
        </mxCell>
        <mxCell id="pSlSebkYDRzY324gOrCj-68" style="edgeStyle=none;shape=connector;rounded=0;orthogonalLoop=1;jettySize=auto;html=1;strokeColor=default;align=center;verticalAlign=middle;fontFamily=Helvetica;fontSize=11;fontColor=default;labelBackgroundColor=default;endArrow=none;endFill=0;" edge="1" parent="1" source="pSlSebkYDRzY324gOrCj-19" target="45yQKrNz5KwJR_Yoa7GH-9">
          <mxGeometry relative="1" as="geometry" />
        </mxCell>
        <mxCell id="pSlSebkYDRzY324gOrCj-19" value="session_id" style="ellipse;whiteSpace=wrap;html=1;align=center;" vertex="1" parent="1">
          <mxGeometry x="-1318" y="221" width="100" height="30" as="geometry" />
        </mxCell>
        <mxCell id="pSlSebkYDRzY324gOrCj-69" style="edgeStyle=none;shape=connector;rounded=0;orthogonalLoop=1;jettySize=auto;html=1;strokeColor=default;align=center;verticalAlign=middle;fontFamily=Helvetica;fontSize=11;fontColor=default;labelBackgroundColor=default;endArrow=none;endFill=0;" edge="1" parent="1" source="pSlSebkYDRzY324gOrCj-20" target="45yQKrNz5KwJR_Yoa7GH-9">
          <mxGeometry relative="1" as="geometry" />
        </mxCell>
        <mxCell id="pSlSebkYDRzY324gOrCj-20" value="product_id" style="ellipse;whiteSpace=wrap;html=1;align=center;" vertex="1" parent="1">
          <mxGeometry x="-1410.5" y="241" width="100" height="30" as="geometry" />
        </mxCell>
        <mxCell id="pSlSebkYDRzY324gOrCj-129" style="edgeStyle=none;shape=connector;rounded=0;orthogonalLoop=1;jettySize=auto;html=1;strokeColor=default;align=center;verticalAlign=middle;fontFamily=Helvetica;fontSize=11;fontColor=default;labelBackgroundColor=default;endArrow=none;endFill=0;" edge="1" parent="1" source="pSlSebkYDRzY324gOrCj-21" target="45yQKrNz5KwJR_Yoa7GH-10">
          <mxGeometry relative="1" as="geometry" />
        </mxCell>
        <mxCell id="pSlSebkYDRzY324gOrCj-21" value="order_id" style="ellipse;whiteSpace=wrap;html=1;align=center;" vertex="1" parent="1">
          <mxGeometry x="-1012.93" y="474" width="100" height="30" as="geometry" />
        </mxCell>
        <mxCell id="pSlSebkYDRzY324gOrCj-128" style="edgeStyle=none;shape=connector;rounded=0;orthogonalLoop=1;jettySize=auto;html=1;strokeColor=default;align=center;verticalAlign=middle;fontFamily=Helvetica;fontSize=11;fontColor=default;labelBackgroundColor=default;endArrow=none;endFill=0;" edge="1" parent="1" source="pSlSebkYDRzY324gOrCj-22" target="45yQKrNz5KwJR_Yoa7GH-10">
          <mxGeometry relative="1" as="geometry" />
        </mxCell>
        <mxCell id="pSlSebkYDRzY324gOrCj-22" value="amount" style="ellipse;whiteSpace=wrap;html=1;align=center;" vertex="1" parent="1">
          <mxGeometry x="-1216.82" y="416" width="100" height="30" as="geometry" />
        </mxCell>
        <mxCell id="pSlSebkYDRzY324gOrCj-127" style="edgeStyle=none;shape=connector;rounded=0;orthogonalLoop=1;jettySize=auto;html=1;strokeColor=default;align=center;verticalAlign=middle;fontFamily=Helvetica;fontSize=11;fontColor=default;labelBackgroundColor=default;endArrow=none;endFill=0;" edge="1" parent="1" source="pSlSebkYDRzY324gOrCj-23" target="45yQKrNz5KwJR_Yoa7GH-10">
          <mxGeometry relative="1" as="geometry" />
        </mxCell>
        <mxCell id="pSlSebkYDRzY324gOrCj-23" value="provider" style="ellipse;whiteSpace=wrap;html=1;align=center;" vertex="1" parent="1">
          <mxGeometry x="-1211.82" y="466" width="100" height="30" as="geometry" />
        </mxCell>
        <mxCell id="pSlSebkYDRzY324gOrCj-133" style="edgeStyle=none;shape=connector;rounded=0;orthogonalLoop=1;jettySize=auto;html=1;strokeColor=default;align=center;verticalAlign=middle;fontFamily=Helvetica;fontSize=11;fontColor=default;labelBackgroundColor=default;endArrow=none;endFill=0;" edge="1" parent="1" source="pSlSebkYDRzY324gOrCj-24" target="45yQKrNz5KwJR_Yoa7GH-10">
          <mxGeometry relative="1" as="geometry" />
        </mxCell>
        <mxCell id="pSlSebkYDRzY324gOrCj-24" value="status" style="ellipse;whiteSpace=wrap;html=1;align=center;" vertex="1" parent="1">
          <mxGeometry x="-1200" y="364" width="100" height="30" as="geometry" />
        </mxCell>
        <mxCell id="pSlSebkYDRzY324gOrCj-164" style="edgeStyle=none;shape=connector;rounded=0;orthogonalLoop=1;jettySize=auto;html=1;strokeColor=default;align=center;verticalAlign=middle;fontFamily=Helvetica;fontSize=11;fontColor=default;labelBackgroundColor=default;endArrow=none;endFill=0;" edge="1" parent="1" source="pSlSebkYDRzY324gOrCj-25" target="45yQKrNz5KwJR_Yoa7GH-11">
          <mxGeometry relative="1" as="geometry" />
        </mxCell>
        <mxCell id="pSlSebkYDRzY324gOrCj-25" value="user_id" style="ellipse;whiteSpace=wrap;html=1;align=center;" vertex="1" parent="1">
          <mxGeometry x="-404" y="130" width="55" height="30" as="geometry" />
        </mxCell>
        <mxCell id="pSlSebkYDRzY324gOrCj-158" style="edgeStyle=none;shape=connector;rounded=0;orthogonalLoop=1;jettySize=auto;html=1;strokeColor=default;align=center;verticalAlign=middle;fontFamily=Helvetica;fontSize=11;fontColor=default;labelBackgroundColor=default;endArrow=none;endFill=0;" edge="1" parent="1" source="pSlSebkYDRzY324gOrCj-26" target="45yQKrNz5KwJR_Yoa7GH-11">
          <mxGeometry relative="1" as="geometry" />
        </mxCell>
        <mxCell id="pSlSebkYDRzY324gOrCj-26" value="city" style="ellipse;whiteSpace=wrap;html=1;align=center;" vertex="1" parent="1">
          <mxGeometry x="-324" y="240" width="55" height="30" as="geometry" />
        </mxCell>
        <mxCell id="pSlSebkYDRzY324gOrCj-165" style="edgeStyle=none;shape=connector;rounded=0;orthogonalLoop=1;jettySize=auto;html=1;strokeColor=default;align=center;verticalAlign=middle;fontFamily=Helvetica;fontSize=11;fontColor=default;labelBackgroundColor=default;endArrow=none;endFill=0;" edge="1" parent="1" source="pSlSebkYDRzY324gOrCj-27" target="45yQKrNz5KwJR_Yoa7GH-11">
          <mxGeometry relative="1" as="geometry" />
        </mxCell>
        <mxCell id="pSlSebkYDRzY324gOrCj-27" value="address_line1" style="ellipse;whiteSpace=wrap;html=1;align=center;" vertex="1" parent="1">
          <mxGeometry x="-149" y="175" width="105" height="30" as="geometry" />
        </mxCell>
        <mxCell id="pSlSebkYDRzY324gOrCj-166" style="edgeStyle=none;shape=connector;rounded=0;orthogonalLoop=1;jettySize=auto;html=1;strokeColor=default;align=center;verticalAlign=middle;fontFamily=Helvetica;fontSize=11;fontColor=default;labelBackgroundColor=default;endArrow=none;endFill=0;" edge="1" parent="1" source="pSlSebkYDRzY324gOrCj-28" target="45yQKrNz5KwJR_Yoa7GH-11">
          <mxGeometry relative="1" as="geometry" />
        </mxCell>
        <mxCell id="pSlSebkYDRzY324gOrCj-28" value="address_line2" style="ellipse;whiteSpace=wrap;html=1;align=center;" vertex="1" parent="1">
          <mxGeometry x="-141.5" y="210" width="105" height="30" as="geometry" />
        </mxCell>
        <mxCell id="pSlSebkYDRzY324gOrCj-159" style="edgeStyle=none;shape=connector;rounded=0;orthogonalLoop=1;jettySize=auto;html=1;strokeColor=default;align=center;verticalAlign=middle;fontFamily=Helvetica;fontSize=11;fontColor=default;labelBackgroundColor=default;endArrow=none;endFill=0;" edge="1" parent="1" source="pSlSebkYDRzY324gOrCj-29" target="45yQKrNz5KwJR_Yoa7GH-11">
          <mxGeometry relative="1" as="geometry" />
        </mxCell>
        <mxCell id="pSlSebkYDRzY324gOrCj-29" value="postal_code" style="ellipse;whiteSpace=wrap;html=1;align=center;" vertex="1" parent="1">
          <mxGeometry x="-266.5" y="250" width="85" height="30" as="geometry" />
        </mxCell>
        <mxCell id="pSlSebkYDRzY324gOrCj-160" style="edgeStyle=none;shape=connector;rounded=0;orthogonalLoop=1;jettySize=auto;html=1;strokeColor=default;align=center;verticalAlign=middle;fontFamily=Helvetica;fontSize=11;fontColor=default;labelBackgroundColor=default;endArrow=none;endFill=0;" edge="1" parent="1" source="pSlSebkYDRzY324gOrCj-30" target="45yQKrNz5KwJR_Yoa7GH-11">
          <mxGeometry relative="1" as="geometry" />
        </mxCell>
        <mxCell id="pSlSebkYDRzY324gOrCj-30" value="country" style="ellipse;whiteSpace=wrap;html=1;align=center;" vertex="1" parent="1">
          <mxGeometry x="-181.5" y="235" width="55" height="30" as="geometry" />
        </mxCell>
        <mxCell id="pSlSebkYDRzY324gOrCj-162" style="edgeStyle=none;shape=connector;rounded=0;orthogonalLoop=1;jettySize=auto;html=1;strokeColor=default;align=center;verticalAlign=middle;fontFamily=Helvetica;fontSize=11;fontColor=default;labelBackgroundColor=default;endArrow=none;endFill=0;" edge="1" parent="1" source="pSlSebkYDRzY324gOrCj-31" target="45yQKrNz5KwJR_Yoa7GH-11">
          <mxGeometry relative="1" as="geometry" />
        </mxCell>
        <mxCell id="pSlSebkYDRzY324gOrCj-31" value="telephone" style="ellipse;whiteSpace=wrap;html=1;align=center;" vertex="1" parent="1">
          <mxGeometry x="-289" y="130" width="85" height="30" as="geometry" />
        </mxCell>
        <mxCell id="pSlSebkYDRzY324gOrCj-161" style="edgeStyle=none;shape=connector;rounded=0;orthogonalLoop=1;jettySize=auto;html=1;strokeColor=default;align=center;verticalAlign=middle;fontFamily=Helvetica;fontSize=11;fontColor=default;labelBackgroundColor=default;endArrow=none;endFill=0;" edge="1" parent="1" source="pSlSebkYDRzY324gOrCj-32" target="45yQKrNz5KwJR_Yoa7GH-11">
          <mxGeometry relative="1" as="geometry" />
        </mxCell>
        <mxCell id="pSlSebkYDRzY324gOrCj-32" value="mobile" style="ellipse;whiteSpace=wrap;html=1;align=center;" vertex="1" parent="1">
          <mxGeometry x="-204" y="155" width="55" height="30" as="geometry" />
        </mxCell>
        <mxCell id="pSlSebkYDRzY324gOrCj-110" style="edgeStyle=none;shape=connector;rounded=0;orthogonalLoop=1;jettySize=auto;html=1;strokeColor=default;align=center;verticalAlign=middle;fontFamily=Helvetica;fontSize=11;fontColor=default;labelBackgroundColor=default;endArrow=none;endFill=0;" edge="1" parent="1" source="pSlSebkYDRzY324gOrCj-33" target="45yQKrNz5KwJR_Yoa7GH-12">
          <mxGeometry relative="1" as="geometry" />
        </mxCell>
        <mxCell id="pSlSebkYDRzY324gOrCj-33" value="payment_type" style="ellipse;whiteSpace=wrap;html=1;align=center;" vertex="1" parent="1">
          <mxGeometry x="-139.5" y="706" width="100" height="30" as="geometry" />
        </mxCell>
        <mxCell id="pSlSebkYDRzY324gOrCj-103" style="edgeStyle=none;shape=connector;rounded=0;orthogonalLoop=1;jettySize=auto;html=1;strokeColor=default;align=center;verticalAlign=middle;fontFamily=Helvetica;fontSize=11;fontColor=default;labelBackgroundColor=default;endArrow=none;endFill=0;" edge="1" parent="1" source="pSlSebkYDRzY324gOrCj-34" target="45yQKrNz5KwJR_Yoa7GH-12">
          <mxGeometry relative="1" as="geometry" />
        </mxCell>
        <mxCell id="pSlSebkYDRzY324gOrCj-34" value="user_id" style="ellipse;whiteSpace=wrap;html=1;align=center;" vertex="1" parent="1">
          <mxGeometry x="-229.5" y="626" width="75" height="30" as="geometry" />
        </mxCell>
        <mxCell id="pSlSebkYDRzY324gOrCj-109" style="edgeStyle=none;shape=connector;rounded=0;orthogonalLoop=1;jettySize=auto;html=1;strokeColor=default;align=center;verticalAlign=middle;fontFamily=Helvetica;fontSize=11;fontColor=default;labelBackgroundColor=default;endArrow=none;endFill=0;" edge="1" parent="1" source="pSlSebkYDRzY324gOrCj-35" target="45yQKrNz5KwJR_Yoa7GH-12">
          <mxGeometry relative="1" as="geometry" />
        </mxCell>
        <mxCell id="pSlSebkYDRzY324gOrCj-35" value="provider" style="ellipse;whiteSpace=wrap;html=1;align=center;" vertex="1" parent="1">
          <mxGeometry x="-99.5" y="661" width="60" height="30" as="geometry" />
        </mxCell>
        <mxCell id="pSlSebkYDRzY324gOrCj-108" style="edgeStyle=none;shape=connector;rounded=0;orthogonalLoop=1;jettySize=auto;html=1;strokeColor=default;align=center;verticalAlign=middle;fontFamily=Helvetica;fontSize=11;fontColor=default;labelBackgroundColor=default;endArrow=none;endFill=0;" edge="1" parent="1" source="pSlSebkYDRzY324gOrCj-36" target="45yQKrNz5KwJR_Yoa7GH-12">
          <mxGeometry relative="1" as="geometry" />
        </mxCell>
        <mxCell id="pSlSebkYDRzY324gOrCj-36" value="account_no" style="ellipse;whiteSpace=wrap;html=1;align=center;" vertex="1" parent="1">
          <mxGeometry x="-344" y="636.5" width="100" height="30" as="geometry" />
        </mxCell>
        <mxCell id="pSlSebkYDRzY324gOrCj-64" style="edgeStyle=none;shape=connector;rounded=0;orthogonalLoop=1;jettySize=auto;html=1;strokeColor=default;align=center;verticalAlign=middle;fontFamily=Helvetica;fontSize=11;fontColor=default;labelBackgroundColor=default;endArrow=none;endFill=0;" edge="1" parent="1" source="pSlSebkYDRzY324gOrCj-38" target="45yQKrNz5KwJR_Yoa7GH-9">
          <mxGeometry relative="1" as="geometry" />
        </mxCell>
        <mxCell id="pSlSebkYDRzY324gOrCj-38" value="quantity" style="ellipse;whiteSpace=wrap;html=1;align=center;" vertex="1" parent="1">
          <mxGeometry x="-1549.25" y="156" width="100" height="30" as="geometry" />
        </mxCell>
        <mxCell id="pSlSebkYDRzY324gOrCj-116" style="edgeStyle=none;shape=connector;rounded=0;orthogonalLoop=1;jettySize=auto;html=1;strokeColor=default;align=center;verticalAlign=middle;fontFamily=Helvetica;fontSize=11;fontColor=default;labelBackgroundColor=default;endArrow=none;endFill=0;" edge="1" parent="1" source="pSlSebkYDRzY324gOrCj-111" target="45yQKrNz5KwJR_Yoa7GH-4">
          <mxGeometry relative="1" as="geometry" />
        </mxCell>
        <mxCell id="pSlSebkYDRzY324gOrCj-111" value="has" style="shape=rhombus;perimeter=rhombusPerimeter;whiteSpace=wrap;html=1;align=center;fontFamily=Helvetica;fontSize=11;fontColor=default;labelBackgroundColor=default;" vertex="1" parent="1">
          <mxGeometry x="-1843" y="276" width="50" height="30" as="geometry" />
        </mxCell>
        <mxCell id="pSlSebkYDRzY324gOrCj-114" style="edgeStyle=none;shape=connector;rounded=0;orthogonalLoop=1;jettySize=auto;html=1;strokeColor=default;align=center;verticalAlign=middle;fontFamily=Helvetica;fontSize=11;fontColor=default;labelBackgroundColor=default;endArrow=none;endFill=0;" edge="1" parent="1" source="pSlSebkYDRzY324gOrCj-112" target="45yQKrNz5KwJR_Yoa7GH-4">
          <mxGeometry relative="1" as="geometry" />
        </mxCell>
        <mxCell id="pSlSebkYDRzY324gOrCj-112" value="has" style="shape=rhombus;perimeter=rhombusPerimeter;whiteSpace=wrap;html=1;align=center;fontFamily=Helvetica;fontSize=11;fontColor=default;labelBackgroundColor=default;" vertex="1" parent="1">
          <mxGeometry x="-1843" y="414" width="50" height="30" as="geometry" />
        </mxCell>
        <mxCell id="pSlSebkYDRzY324gOrCj-119" style="edgeStyle=none;shape=connector;rounded=0;orthogonalLoop=1;jettySize=auto;html=1;strokeColor=default;align=center;verticalAlign=middle;fontFamily=Helvetica;fontSize=11;fontColor=default;labelBackgroundColor=default;endArrow=none;endFill=0;" edge="1" parent="1" source="pSlSebkYDRzY324gOrCj-117" target="45yQKrNz5KwJR_Yoa7GH-2">
          <mxGeometry relative="1" as="geometry" />
        </mxCell>
        <mxCell id="pSlSebkYDRzY324gOrCj-117" value="has" style="shape=rhombus;perimeter=rhombusPerimeter;whiteSpace=wrap;html=1;align=center;fontFamily=Helvetica;fontSize=11;fontColor=default;labelBackgroundColor=default;" vertex="1" parent="1">
          <mxGeometry x="-1843" y="574" width="50" height="30" as="geometry" />
        </mxCell>
        <mxCell id="pSlSebkYDRzY324gOrCj-141" value="has" style="shape=rhombus;perimeter=rhombusPerimeter;whiteSpace=wrap;html=1;align=center;fontFamily=Helvetica;fontSize=11;fontColor=default;labelBackgroundColor=default;" vertex="1" parent="1">
          <mxGeometry x="-1071.82" y="559" width="70" height="30" as="geometry" />
        </mxCell>
        <mxCell id="pSlSebkYDRzY324gOrCj-144" style="edgeStyle=none;shape=connector;rounded=0;orthogonalLoop=1;jettySize=auto;html=1;exitX=1;exitY=0.5;exitDx=0;exitDy=0;strokeColor=default;align=center;verticalAlign=middle;fontFamily=Helvetica;fontSize=11;fontColor=default;labelBackgroundColor=default;endArrow=none;endFill=0;" edge="1" parent="1" source="45yQKrNz5KwJR_Yoa7GH-10" target="45yQKrNz5KwJR_Yoa7GH-10">
          <mxGeometry relative="1" as="geometry" />
        </mxCell>
        <mxCell id="pSlSebkYDRzY324gOrCj-145" value="has" style="shape=rhombus;perimeter=rhombusPerimeter;whiteSpace=wrap;html=1;align=center;fontFamily=Helvetica;fontSize=11;fontColor=default;labelBackgroundColor=default;" vertex="1" parent="1">
          <mxGeometry x="-798" y="696.5" width="70" height="30" as="geometry" />
        </mxCell>
        <mxCell id="pSlSebkYDRzY324gOrCj-149" value="has" style="shape=rhombus;perimeter=rhombusPerimeter;whiteSpace=wrap;html=1;align=center;fontFamily=Helvetica;fontSize=11;fontColor=default;labelBackgroundColor=default;" vertex="1" parent="1">
          <mxGeometry x="-798" y="181" width="70" height="30" as="geometry" />
        </mxCell>
        <mxCell id="pSlSebkYDRzY324gOrCj-154" style="edgeStyle=none;shape=connector;rounded=0;orthogonalLoop=1;jettySize=auto;html=1;strokeColor=default;align=center;verticalAlign=middle;fontFamily=Helvetica;fontSize=11;fontColor=default;labelBackgroundColor=default;endArrow=none;endFill=0;" edge="1" parent="1" source="pSlSebkYDRzY324gOrCj-152" target="45yQKrNz5KwJR_Yoa7GH-12">
          <mxGeometry relative="1" as="geometry" />
        </mxCell>
        <mxCell id="pSlSebkYDRzY324gOrCj-152" value="has" style="shape=rhombus;perimeter=rhombusPerimeter;whiteSpace=wrap;html=1;align=center;fontFamily=Helvetica;fontSize=11;fontColor=default;labelBackgroundColor=default;" vertex="1" parent="1">
          <mxGeometry x="-478" y="696.5" width="70" height="30" as="geometry" />
        </mxCell>
        <mxCell id="pSlSebkYDRzY324gOrCj-155" value="has" style="shape=rhombus;perimeter=rhombusPerimeter;whiteSpace=wrap;html=1;align=center;fontFamily=Helvetica;fontSize=11;fontColor=default;labelBackgroundColor=default;" vertex="1" parent="1">
          <mxGeometry x="-478" y="181" width="70" height="30" as="geometry" />
        </mxCell>
      </root>
    </mxGraphModel>
  </diagram>
</mxfile>
